<?xml version="1.0" standalone="no"?>
<!DOCTYPE svg PUBLIC "-//W3C//DTD SVG 20010904//EN"
 "http://www.w3.org/TR/2001/REC-SVG-20010904/DTD/svg10.dtd">
<svg version="1.0" xmlns="http://www.w3.org/2000/svg"
 width="420.000000pt" height="420.000000pt" viewBox="0 0 420.000000 420.000000"
 preserveAspectRatio="xMidYMid meet">
<metadata>
Created by potrace 1.11, written by Peter Selinger 2001-2013
</metadata>
<g transform="translate(0.000000,420.000000) scale(0.100000,-0.100000)"
fill="#000000" stroke="none">
<path d="M3111 3913 c-42 -21 -174 -166 -506 -558 -145 -170 -277 -323 -294
-339 l-31 -29 -159 324 c-168 344 -246 475 -287 485 -32 8 -70 -2 -94 -26 -11
-11 -27 -20 -35 -20 -9 0 -31 -6 -50 -14 -21 -9 -37 -11 -40 -5 -9 14 -83 11
-115 -6 -37 -19 -70 -82 -70 -133 0 -43 129 -432 290 -878 55 -151 100 -282
100 -292 0 -9 -50 -80 -112 -156 -434 -544 -769 -1009 -927 -1286 -76 -134
-100 -209 -84 -256 6 -16 8 -74 5 -130 -5 -112 5 -148 67 -232 42 -57 85 -82
141 -82 63 0 167 26 201 51 17 12 81 108 160 242 277 466 710 1126 807 1230
48 51 62 41 154 -109 46 -74 140 -223 210 -330 212 -324 297 -424 361 -424 68
0 137 71 137 141 0 27 8 43 34 68 19 19 40 48 47 65 7 17 21 44 32 59 35 51
21 98 -116 397 -69 151 -162 352 -207 445 -45 94 -100 210 -122 259 l-39 90
40 58 c52 75 455 602 707 923 108 138 203 265 211 284 13 30 13 39 -1 75 -9
23 -30 58 -47 79 -40 49 -76 50 -127 2 l-37 -35 33 11 c17 6 35 15 38 20 8 14
24 11 24 -4 0 -15 -61 -47 -89 -47 -11 0 -18 7 -17 16 1 18 -82 69 -129 78
-19 4 -43 -1 -64 -11z m56 -30 c-4 -3 -26 -15 -49 -25 l-42 -19 24 25 c13 15
35 26 48 26 14 0 22 -3 19 -7z m-1368 -128 c-4 -16 -121 -64 -157 -65 -46 0
-32 16 25 30 27 6 64 20 83 30 36 20 53 21 49 5z m-219 -54 c0 -9 -60 -24 -68
-17 -2 3 -1 9 3 15 7 13 65 15 65 2z m760 -716 c-15 -18 -53 -20 -48 -3 4 12
48 28 57 22 2 -2 -2 -10 -9 -19z"/>
</g>
</svg>
